<svg id="Header" xmlns="http://www.w3.org/2000/svg" width="500.001" height="99.714" viewBox="0 0 1048 209">
  <defs>
    <style>
      .cls-1 {
        fill: #7a2b2b;
        fill-rule: evenodd;
      }
    </style>
  </defs>
  <path id="de_l_éversion" data-name="de l’éversion" class="cls-1" d="M54.763,159.275H94.288c33.583,0,47.533-13.433,47.533-42.883,0-29.579-13.95-42.883-47.533-42.883H54.763l3.487,13.3v59.158Zm31.516-19.5V92.884h9.687c12.4,0,16.663,4.779,16.663,23.508s-4.65,23.379-17.179,23.379H86.28Zm127.1,0.258H181.215V125.305H202.14l8.267,2.066V104.638l-8.267,2.067H181.215V92.755H211.7L225.132,96.5l-3.488-22.992H149.7l3.487,13.3v59.158l-3.487,13.3h73.624l3.488-22.991Zm100.876-.645H289.583V86.813l3.487-13.3H257.808l3.488,13.3v59.158l-3.488,13.3H324.2l3.488-23.637Zm5.295-29.709h12.4l12.658-30.483L330.141,64.726,315.674,79.192l10.075,10.592ZM424.173,44.318H391.882L375.219,65.759h22.346Zm-8.783,95.711H383.227V125.305h20.925l8.267,2.066V104.638l-8.267,2.067H383.227V92.755h30.484L427.144,96.5l-3.488-22.992H351.711l3.488,13.3v59.158l-3.488,13.3h73.624l3.488-22.991Zm78.661-66.52-0.388,13.3-14.725,48.308L465.505,86.813l-0.387-13.3H430.76l30.1,85.766H491.08l32.033-85.766H494.051Zm96.487,66.52H558.376V125.305H579.3l8.266,2.066V104.638l-8.266,2.067H558.376V92.755h30.483L602.292,96.5,598.8,73.509H526.859l3.488,13.3v59.158l-3.488,13.3h73.625l3.487-22.991Zm85.378-16.274c11.237-3.875,16.275-12.142,16.275-22.734,0-17.824-9.817-27.512-33.454-27.512H610.429l3.487,13.3v59.029l-3.487,13.433H645.82L642.2,145.842v-16.4h8.913l10.075,18.471,0.646,11.366h36.812Zm-34.229-12.788V91.722h12.529c7.75,0,10.462,2.971,10.462,9.816,0,6.975-4.262,9.429-12.012,9.429H641.687Zm97.65,50.5c24.412,0,37.974-11.367,37.974-28.029,0-14.467-9.687-22.862-31.774-28.029-12.917-2.971-15.113-5.554-15.113-9.558,0-3.875,4.65-6.071,11.367-6.071a62.637,62.637,0,0,1,14.983,1.808l17.308,8.654-3.875-26.22a180.268,180.268,0,0,0-30.87-2.583c-25.963,0-37.717,11.237-37.717,27.125,0,15.758,10.463,23.508,31.517,28.546,12.916,2.971,15.37,5.166,15.37,9.429,0,4.133-3.745,6.587-10.849,6.587-5.555,0-10.463-.775-18.213-2.583l-18.083-9.817,4.133,27.384C713.762,159.533,724.1,161.471,739.337,161.471Zm45.337-2.2h35.263l-3.488-13.3V86.813l3.488-13.3H784.674l3.488,13.3v59.158Zm87.961,2.713c28.546,0,44.692-16.4,44.692-45.6,0-29.32-15.888-45.466-44.692-45.466-28.675,0-44.82,16.146-44.82,45.466C827.815,145.584,845.381,161.988,872.635,161.988Zm-0.258-20.667c-9.817,0-15.112-5.683-15.112-24.929,0-19.375,5.812-25.058,15.5-25.058,9.817,0,15.113,5.683,15.113,25.058C887.877,135.638,882.193,141.321,872.377,141.321ZM985.784,73.509l3.488,13.3,0.645,47.921L964.988,73.509H925.205l3.488,13.3v59.029l-3.488,13.433H954.4l-3.488-13.433-0.645-46.629,24.412,60.062h36.814V86.813l3.49-13.3h-29.2Z"/>
</svg>
