<svg id="Header" xmlns="http://www.w3.org/2000/svg" width="500.035" height="146.765" viewBox="0 0 1063 312">
  <defs>
    <style>
      .cls-1 {
        fill: #fff;
      }

      .cls-1, .cls-2 {
        fill-rule: evenodd;
      }

      .cls-2 {
        fill: #7a2b2b;
      }
    </style>
  </defs>
  <path id="pierre-andré_" data-name="pierre-andré " class="cls-1" d="M180.347,126.339h21.234l-3.617-11.2V99.505h19.484c20.3,0,28.817-8.167,28.817-25.2,0-17.15-8.517-25.434-28.351-25.434H180.347l2.217,11.2v55.068Zm17.5-37.451V59.6h17.734c11.084,0,15.517,4.667,15.517,15.05,0,10.033-4.433,14.234-15.867,14.234H197.847Zm57.866,37.451h19.834l-2.217-11.2V60.071l2.217-11.2H255.713l2.217,11.2v55.068Zm83.533-10.734H305.412V92.038h24.034l8.516,1.4v-13.3l-8.516,1.4H305.412V59.6h33.017l11.2,2.8-2.1-13.534H287.912l2.216,11.2v55.068l-2.216,11.2h60.434l2.1-13.534Zm69.065-21.933C420.445,90.872,426.4,82.938,426.4,72.2c0-15.05-8.75-23.334-28-23.334h-38.5l2.216,11.2v55.068l-2.216,11.2h20.067l-2.45-11.2V96.472h15.517l14.933,20.767,2.217,9.1H432.7Zm-31.15-8.284V59.138h18.9c10.5,0,15.167,4.55,15.167,13.183,0,8.75-6.184,13.067-16.684,13.067H377.161Zm110.833,8.284c12.134-2.8,18.084-10.734,18.084-21.467,0-15.05-8.75-23.334-28-23.334h-38.5l2.216,11.2v55.068l-2.216,11.2h20.067l-2.45-11.2V96.472h15.517l14.933,20.767,2.217,9.1h22.517Zm-31.15-8.284V59.138h18.9c10.5,0,15.167,4.55,15.167,13.183,0,8.75-6.183,13.067-16.684,13.067H456.844Zm113.75,30.217H536.76V92.038h24.034l8.517,1.4v-13.3l-8.517,1.4H536.76V59.6h33.017l11.2,2.8-2.1-13.534H519.26l2.217,11.2v55.068l-2.217,11.2h60.434l2.1-13.534Zm18.548-23.917h31.617V81.3H589.142V91.688Zm82.016-42.817h-20.3l2.8,6.417-29.984,71.051h16.8l1.4-10.034,2.45-5.833h36.051l2.333,5.833,1.4,10.034h19.251ZM648.874,99.622l13.534-32.784,13.417,32.784H648.874ZM764.841,48.871l2.1,11.2v52.384L732.29,48.871H708.373l2.217,11.2v55.068l-2.217,11.2H725.64l-2.1-11.2V62.4l34.884,63.935h21.467V60.071l2.217-11.2H764.841Zm29.749,77.468h31.384c28.35,0,41.534-12.25,41.534-38.851,0-26.484-13.184-38.617-41.534-38.617H794.59l2.216,11.2v55.068Zm17.5-10.85V59.721h14.7c16.917,0,24.851,7.467,24.851,27.767,0,20.417-8.05,28-25.084,28H812.09ZM926.772,93.672c12.134-2.8,18.084-10.734,18.084-21.467,0-15.05-8.75-23.334-28-23.334h-38.5l2.217,11.2v55.068l-2.217,11.2h20.067l-2.45-11.2V96.472h15.517l14.933,20.767,2.217,9.1h22.517Zm-31.15-8.284V59.138h18.9c10.5,0,15.167,4.55,15.167,13.183,0,8.75-6.183,13.067-16.684,13.067H895.622Zm118.3-61.368h-18.2L978.688,41.638h13.067Zm-4.55,91.585H975.538V92.038h24.034l8.518,1.4v-13.3l-8.518,1.4H975.538V59.6h33.022l11.2,2.8-2.1-13.534H958.038l2.217,11.2v55.068l-2.217,11.2h60.432l2.1-13.534Z"/>
  <path id="arillot" class="cls-1" d="M250.675,142.318h-31.9l4.4,10.084-47.116,111.65h26.4l2.2-15.766,3.85-9.167h56.65l3.667,9.167,2.2,15.766h30.25Zm-35.017,79.751,21.267-51.517,21.083,51.517h-42.35Zm187.916-9.35c19.066-4.4,28.416-16.867,28.416-33.734,0-23.65-13.75-36.667-44-36.667h-60.5l3.483,17.6v86.534l-3.483,17.6h31.533l-3.85-17.6V217.119h24.384l23.467,32.633,3.483,14.3h35.384ZM354.623,199.7v-41.25h29.7c16.5,0,23.833,7.15,23.833,20.717,0,13.75-9.717,20.533-26.217,20.533H354.623Zm116.417,64.35h31.166l-3.483-17.6V159.918l3.483-17.6H471.04l3.483,17.6v86.534Zm140.8-17.416H567.654V159.918l3.483-17.6H539.97l3.484,17.6v86.534l-3.484,17.6h86.351l3.3-21.816Zm120.633,0H688.287V159.918l3.483-17.6H660.6l3.484,17.6v86.534l-3.484,17.6h86.351l3.3-21.816Zm99.369,20.9c37.583,0,61.6-23.834,61.6-64.534,0-40.517-23.833-63.984-61.6-63.984S770.055,162.485,770.055,203C770.055,243.7,795.172,267.536,831.839,267.536Zm-0.183-17.967c-21.634,0-36.3-14.85-36.3-46.567,0-31.533,14.85-46.2,36.667-46.2,21.634,0,36.117,14.667,36.117,46.2C868.139,234.719,853.289,249.569,831.656,249.569Zm171.6-89.834,17.78,4.4-3.48-21.817H918.374l-3.3,21.817,17.784-4.4h23.1v86.717l-5.684,17.6h35.567l-5.683-17.6V159.735h23.1Z"/>
  <path id="j" class="cls-2" d="M86.729,263.943c45.879,0,72.187-29.2,72.508-73.47V77.861l6.095-30.8H110.791l6.1,30.8V197.21c0,23.421-11.871,35.612-33.687,35.612a34.892,34.892,0,0,1-12.512-2.566L35.075,203.627v46.2C55.608,259.772,68.762,263.943,86.729,263.943Z"/>
</svg>
