<svg id="Header" xmlns="http://www.w3.org/2000/svg" width="999.99" height="341.94" viewBox="0 0 1626 556">
  <defs>
    <style>
      .cls-1 {
        fill: #fff;
      }

      .cls-1, .cls-2 {
        fill-rule: evenodd;
      }

      .cls-2 {
        fill: #7a2b2b;
      }
    </style>
  </defs>
  <path id="pierre-andré_" data-name="pierre-andré " class="cls-1" d="M394.347,176.339h21.234l-3.617-11.2V149.505h19.484c20.3,0,28.817-8.167,28.817-25.2,0-17.151-8.517-25.434-28.351-25.434H394.347l2.217,11.2v55.068Zm17.5-37.451V109.6h17.734c11.084,0,15.517,4.667,15.517,15.051,0,10.033-4.433,14.233-15.867,14.233H411.847Zm57.866,37.451h19.834l-2.217-11.2V110.071l2.217-11.2H469.713l2.217,11.2v55.068Zm83.533-10.734H519.412V142.038h24.034l8.516,1.4v-13.3l-8.516,1.4H519.412V109.6h33.017l11.2,2.8-2.1-13.534H501.912l2.216,11.2v55.068l-2.216,11.2h60.434l2.1-13.534Zm69.065-21.933c12.134-2.8,18.084-10.734,18.084-21.467,0-15.051-8.75-23.334-28-23.334h-38.5l2.216,11.2v55.068l-2.216,11.2h20.067l-2.45-11.2V146.472h15.517l14.933,20.767,2.217,9.1H646.7Zm-31.15-8.284v-26.25h18.9c10.5,0,15.167,4.55,15.167,13.183,0,8.75-6.184,13.067-16.684,13.067H591.161Zm110.833,8.284c12.134-2.8,18.084-10.734,18.084-21.467,0-15.051-8.75-23.334-28-23.334h-38.5l2.216,11.2v55.068l-2.216,11.2h20.067l-2.45-11.2V146.472h15.517l14.933,20.767,2.217,9.1h22.517Zm-31.15-8.284v-26.25h18.9c10.5,0,15.167,4.55,15.167,13.183,0,8.75-6.183,13.067-16.684,13.067H670.844Zm113.75,30.217H750.76V142.038h24.034l8.517,1.4v-13.3l-8.517,1.4H750.76V109.6h33.017l11.2,2.8-2.1-13.534H733.26l2.217,11.2v55.068l-2.217,11.2h60.434l2.1-13.534Zm18.548-23.917h31.617V131.305H803.142v10.383Zm82.016-42.817h-20.3l2.8,6.417-29.984,71.051h16.8l1.4-10.034,2.45-5.833h36.051l2.333,5.833,1.4,10.034h19.251Zm-22.284,50.751,13.534-32.784,13.417,32.784H862.874ZM978.841,98.871l2.1,11.2v52.384L946.29,98.871H922.373l2.217,11.2v55.068l-2.217,11.2H939.64l-2.1-11.2V112.405l34.884,63.934h21.467V110.071l2.217-11.2H978.841Zm29.749,77.468h31.38c28.35,0,41.54-12.25,41.54-38.851,0-26.484-13.19-38.617-41.54-38.617h-31.38l2.22,11.2v55.068Zm17.5-10.85V109.721h14.7c16.92,0,24.85,7.467,24.85,27.767,0,20.417-8.05,28-25.08,28h-14.47Zm114.68-21.817c12.14-2.8,18.09-10.734,18.09-21.467,0-15.051-8.75-23.334-28-23.334h-38.51l2.22,11.2v55.068l-2.22,11.2h20.07l-2.45-11.2V146.472h15.52l14.93,20.767,2.22,9.1h22.52Zm-31.15-8.284v-26.25h18.9c10.5,0,15.17,4.55,15.17,13.183,0,8.75-6.18,13.067-16.68,13.067h-17.39Zm118.3-61.368h-18.2l-17.03,17.617h13.07Zm-4.55,91.584h-33.83V142.038h24.03l8.52,1.4v-13.3l-8.52,1.4h-24.03V109.6h33.02l11.2,2.8-2.1-13.534h-59.62l2.21,11.2v55.068l-2.21,11.2h60.43l2.1-13.534Z"/>
  <path id="arillot" class="cls-1" d="M464.675,192.318h-31.9l4.4,10.084-47.116,111.65h26.4l2.2-15.766,3.85-9.167h56.65l3.667,9.167,2.2,15.766h30.25Zm-35.017,79.751,21.267-51.517,21.083,51.517h-42.35Zm187.916-9.35c19.066-4.4,28.416-16.867,28.416-33.734,0-23.65-13.75-36.667-44-36.667h-60.5l3.483,17.6v86.534l-3.483,17.6h31.533l-3.85-17.6V267.119h24.384l23.467,32.633,3.483,14.3h35.384ZM568.623,249.7v-41.25h29.7c16.5,0,23.833,7.15,23.833,20.717,0,13.75-9.717,20.533-26.217,20.533H568.623Zm116.417,64.35h31.166l-3.483-17.6V209.918l3.483-17.6H685.04l3.483,17.6v86.534Zm140.8-17.416H781.654V209.918l3.483-17.6H753.97l3.484,17.6v86.534l-3.484,17.6h86.351l3.3-21.816Zm120.633,0H902.287V209.918l3.483-17.6H874.6l3.484,17.6v86.534l-3.484,17.6h86.351l3.3-21.816Zm99.37,20.9c37.58,0,61.6-23.834,61.6-64.534,0-40.517-23.83-63.984-61.6-63.984S984.055,212.485,984.055,253C984.055,293.7,1009.17,317.536,1045.84,317.536Zm-0.18-17.967c-21.64,0-36.3-14.85-36.3-46.567,0-31.533,14.85-46.2,36.66-46.2,21.64,0,36.12,14.667,36.12,46.2C1082.14,284.719,1067.29,299.569,1045.66,299.569Zm171.6-89.834,17.78,4.4-3.48-21.817h-99.19l-3.3,21.817,17.79-4.4h23.1v86.717l-5.69,17.6h35.57l-5.68-17.6V209.735h23.1Z"/>
  <path id="j" class="cls-2" d="M300.729,313.943c45.879,0,72.187-29.2,72.508-73.47V127.861l6.095-30.8H324.791l6.1,30.8V247.21c0,23.421-11.871,35.612-33.687,35.612a34.9,34.9,0,0,1-12.513-2.566l-35.612-26.629v46.2C269.608,309.772,282.762,313.943,300.729,313.943Z"/>
  <path id="de_l_éversion" data-name="de l’éversion" class="cls-2" d="M476.763,506.275h39.525c33.583,0,47.533-13.433,47.533-42.883,0-29.579-13.95-42.883-47.533-42.883H476.763l3.488,13.3v59.158Zm31.517-19.5V439.884h9.687c12.4,0,16.663,4.779,16.663,23.508s-4.65,23.379-17.18,23.379h-9.17Zm127.1,0.258H603.215V472.305H624.14l8.267,2.066V451.638l-8.267,2.067H603.215v-13.95H633.7l13.434,3.746-3.488-22.992H571.7l3.487,13.3v59.158l-3.487,13.3h73.624l3.488-22.991Zm100.876-.645H711.583V433.813l3.487-13.3H679.808l3.488,13.3v59.158l-3.488,13.3H746.2l3.488-23.637Zm5.295-29.709h12.4l12.658-30.483-14.466-14.466-14.467,14.466,10.075,10.592Zm104.624-65.357H813.882l-16.663,21.441h22.346Zm-8.783,95.711H805.227V472.305h20.925l8.267,2.066V451.638l-8.267,2.067H805.227v-13.95h30.484l13.433,3.746-3.488-22.992H773.711l3.488,13.3v59.158l-3.488,13.3h73.624l3.488-22.991Zm78.661-66.52-0.388,13.3-14.725,48.308-13.433-48.308-0.387-13.3H852.76l30.1,85.766H913.08l32.033-85.766H916.051Zm96.489,66.52H980.376V472.305H1001.3l8.27,2.066V451.638l-8.27,2.067H980.376v-13.95h30.484l13.43,3.746-3.49-22.992H948.859l3.488,13.3v59.158l-3.488,13.3h73.621l3.49-22.991Zm85.38-16.274c11.23-3.875,16.27-12.142,16.27-22.734,0-17.824-9.82-27.512-33.45-27.512h-48.31l3.49,13.3v59.029l-3.49,13.433h35.39l-3.62-13.433v-16.4h8.92l10.07,18.471,0.65,11.366h36.81Zm-34.23-12.788V438.721h12.53c7.75,0,10.46,2.971,10.46,9.817,0,6.975-4.26,9.429-12.01,9.429h-10.98Zm97.65,50.5c24.41,0,37.97-11.367,37.97-28.029,0-14.467-9.69-22.862-31.77-28.029-12.92-2.971-15.12-5.554-15.12-9.558,0-3.875,4.65-6.071,11.37-6.071a62.556,62.556,0,0,1,14.98,1.808l17.31,8.654-3.87-26.22a180.29,180.29,0,0,0-30.87-2.584c-25.97,0-37.72,11.238-37.72,27.125,0,15.758,10.46,23.508,31.52,28.546,12.91,2.971,15.37,5.166,15.37,9.429,0,4.133-3.75,6.587-10.85,6.587-5.56,0-10.46-.775-18.21-2.583l-18.09-9.817,4.14,27.384C1135.76,506.533,1146.1,508.471,1161.34,508.471Zm45.33-2.2h35.27l-3.49-13.3V433.813l3.49-13.3h-35.27l3.49,13.3v59.158Zm87.97,2.713c28.54,0,44.69-16.4,44.69-45.6,0-29.321-15.89-45.466-44.69-45.466-28.68,0-44.83,16.145-44.83,45.466C1249.81,492.584,1267.38,508.988,1294.64,508.988Zm-0.26-20.667c-9.82,0-15.12-5.683-15.12-24.929,0-19.375,5.82-25.058,15.5-25.058,9.82,0,15.12,5.683,15.12,25.058C1309.88,482.638,1304.19,488.321,1294.38,488.321Zm113.4-67.812,3.49,13.3,0.65,47.921-24.93-61.225h-39.78l3.48,13.3v59.029l-3.48,13.433h29.19l-3.49-13.433-0.65-46.629,24.42,60.062h36.81V433.813l3.49-13.3h-29.2Z"/>
</svg>
